<?xml version="1.0" encoding="utf-8"?>
<svg xmlns="http://www.w3.org/2000/svg" xmlns:xlink="http://www.w3.org/1999/xlink" style="margin: auto; background: rgb(255, 255, 255); display: block; shape-rendering: auto;" width="217px" height="217px" viewBox="0 0 100 100" preserveAspectRatio="xMidYMid">
<g transform="rotate(0 50 50)">
  <rect x="40" y="13" rx="10" ry="10" width="20" height="20" fill="#000000">
    <animate attributeName="opacity" values="1;0" keyTimes="0;1" dur="0.7407407407407407s" begin="-0.6349206349206349s" repeatCount="indefinite"></animate>
  </rect>
</g><g transform="rotate(51.42857142857143 50 50)">
  <rect x="40" y="13" rx="10" ry="10" width="20" height="20" fill="#000000">
    <animate attributeName="opacity" values="1;0" keyTimes="0;1" dur="0.7407407407407407s" begin="-0.5291005291005291s" repeatCount="indefinite"></animate>
  </rect>
</g><g transform="rotate(102.85714285714286 50 50)">
  <rect x="40" y="13" rx="10" ry="10" width="20" height="20" fill="#000000">
    <animate attributeName="opacity" values="1;0" keyTimes="0;1" dur="0.7407407407407407s" begin="-0.42328042328042326s" repeatCount="indefinite"></animate>
  </rect>
</g><g transform="rotate(154.28571428571428 50 50)">
  <rect x="40" y="13" rx="10" ry="10" width="20" height="20" fill="#000000">
    <animate attributeName="opacity" values="1;0" keyTimes="0;1" dur="0.7407407407407407s" begin="-0.31746031746031744s" repeatCount="indefinite"></animate>
  </rect>
</g><g transform="rotate(205.71428571428572 50 50)">
  <rect x="40" y="13" rx="10" ry="10" width="20" height="20" fill="#000000">
    <animate attributeName="opacity" values="1;0" keyTimes="0;1" dur="0.7407407407407407s" begin="-0.21164021164021163s" repeatCount="indefinite"></animate>
  </rect>
</g><g transform="rotate(257.14285714285717 50 50)">
  <rect x="40" y="13" rx="10" ry="10" width="20" height="20" fill="#000000">
    <animate attributeName="opacity" values="1;0" keyTimes="0;1" dur="0.7407407407407407s" begin="-0.10582010582010581s" repeatCount="indefinite"></animate>
  </rect>
</g><g transform="rotate(308.57142857142856 50 50)">
  <rect x="40" y="13" rx="10" ry="10" width="20" height="20" fill="#000000">
    <animate attributeName="opacity" values="1;0" keyTimes="0;1" dur="0.7407407407407407s" begin="0s" repeatCount="indefinite"></animate>
  </rect>
</g>
<!-- [ldio] generated by https://loading.io/ --></svg>